<svg width="24" height="24" viewBox="0 0 24 24" fill="none" xmlns="http://www.w3.org/2000/svg">
<path d="M2 20C2.00237 20.7949 2.31921 21.5566 2.8813 22.1187C3.4434 22.6808 4.20508 22.9976 5 23H11V13H2V20Z" fill="white"/>
<path d="M13 23H19C19.7949 22.9976 20.5566 22.6808 21.1187 22.1187C21.6808 21.5566 21.9976 20.7949 22 20V13H13V23Z" fill="white"/>
<path d="M20 5H16.82C16.9411 4.6806 17.0021 4.34158 17 4C16.9976 3.20508 16.6808 2.4434 16.1187 1.8813C15.5566 1.31921 14.7949 1.00237 14 1C13.2595 1.00193 12.5463 1.28007 12 1.78C11.4537 1.28007 10.7405 1.00193 10 1C9.20508 1.00237 8.44339 1.31921 7.8813 1.8813C7.3192 2.4434 7.00237 3.20508 7 4C6.99787 4.34158 7.0589 4.6806 7.18 5H4C3.20508 5.00237 2.4434 5.31921 1.8813 5.8813C1.31921 6.4434 1.00237 7.20508 1 8V10C1 10.2652 1.10536 10.5196 1.29289 10.7071C1.48043 10.8946 1.73478 11 2 11H11V5H10C9.80221 5 9.60887 4.94135 9.44442 4.83147C9.27998 4.72159 9.1518 4.56541 9.07612 4.38268C9.00043 4.19996 8.98063 3.99889 9.01921 3.80491C9.0578 3.61093 9.15304 3.43275 9.29289 3.29289C9.43274 3.15304 9.61092 3.0578 9.8049 3.01921C9.99889 2.98063 10.2 3.00043 10.3827 3.07612C10.5654 3.15181 10.7216 3.27998 10.8315 3.44443C10.9413 3.60888 11 3.80222 11 4V5H13V4C13 3.80222 13.0586 3.60888 13.1685 3.44443C13.2784 3.27998 13.4346 3.15181 13.6173 3.07612C13.8 3.00043 14.0011 2.98063 14.1951 3.01921C14.3891 3.0578 14.5672 3.15304 14.7071 3.29289C14.847 3.43275 14.9422 3.61093 14.9808 3.80491C15.0194 3.99889 14.9996 4.19996 14.9239 4.38268C14.8482 4.56541 14.72 4.72159 14.5556 4.83147C14.3911 4.94135 14.1978 5 14 5H13V11H22C22.2652 11 22.5196 10.8946 22.7071 10.7071C22.8946 10.5196 23 10.2652 23 10V8C22.9976 7.20508 22.6808 6.4434 22.1187 5.8813C21.5566 5.31921 20.7949 5.00237 20 5Z" fill="white"/>
</svg>
